<mxfile host="65bd71144e" scale="5" border="0">
    <diagram id="RKooDY8fcuxsYfBq0sk9" name="第 1 页">
        <mxGraphModel dx="397" dy="414" grid="1" gridSize="10" guides="1" tooltips="1" connect="1" arrows="1" fold="1" page="1" pageScale="1" pageWidth="827" pageHeight="1169" background="#ffffff" math="0" shadow="0">
            <root>
                <mxCell id="0"/>
                <mxCell id="1" parent="0"/>
                <mxCell id="99" value="" style="rounded=0;whiteSpace=wrap;html=1;fillColor=none;strokeColor=#666666;strokeWidth=6;dashed=1;dashPattern=1 1;fontColor=#333333;" parent="1" vertex="1">
                    <mxGeometry x="70" y="590" width="530" height="100" as="geometry"/>
                </mxCell>
                <mxCell id="98" value="" style="rounded=0;whiteSpace=wrap;html=1;fillColor=none;strokeColor=#9673a6;strokeWidth=6;dashed=1;dashPattern=1 1;" parent="1" vertex="1">
                    <mxGeometry x="70" y="110" width="530" height="440" as="geometry"/>
                </mxCell>
                <mxCell id="61" value="" style="endArrow=classic;html=1;rounded=0;curved=0;fillColor=#d5e8d4;strokeColor=#82b366;exitX=1;exitY=0.296;exitDx=0;exitDy=0;entryX=0;entryY=0.296;entryDx=0;entryDy=0;entryPerimeter=0;strokeWidth=4;exitPerimeter=0;" parent="1" source="52" target="53" edge="1">
                    <mxGeometry width="50" height="50" relative="1" as="geometry">
                        <mxPoint x="260" y="289.92" as="sourcePoint"/>
                        <mxPoint x="350" y="289.92" as="targetPoint"/>
                        <Array as="points"/>
                    </mxGeometry>
                </mxCell>
                <mxCell id="60" value="" style="endArrow=classic;html=1;rounded=0;curved=0;fillColor=#d5e8d4;strokeColor=#82b366;exitX=1;exitY=0.037;exitDx=0;exitDy=0;entryX=0;entryY=0.037;entryDx=0;entryDy=0;entryPerimeter=0;strokeWidth=4;exitPerimeter=0;" parent="1" source="52" target="53" edge="1">
                    <mxGeometry width="50" height="50" relative="1" as="geometry">
                        <mxPoint x="260" y="220" as="sourcePoint"/>
                        <mxPoint x="350" y="220" as="targetPoint"/>
                        <Array as="points">
                            <mxPoint x="290" y="220"/>
                        </Array>
                    </mxGeometry>
                </mxCell>
                <mxCell id="52" value="&lt;font style=&quot;font-size: 15px;&quot; face=&quot;Georgia&quot;&gt;&lt;b&gt;Host&lt;/b&gt;&lt;/font&gt;" style="rounded=0;whiteSpace=wrap;html=1;strokeWidth=4;" parent="1" vertex="1">
                    <mxGeometry x="160" y="210" width="70" height="270" as="geometry"/>
                </mxCell>
                <mxCell id="53" value="&lt;font style=&quot;font-size: 15px;&quot; face=&quot;Georgia&quot;&gt;&lt;b&gt;Device&lt;/b&gt;&lt;/font&gt;" style="rounded=0;whiteSpace=wrap;html=1;strokeWidth=4;" parent="1" vertex="1">
                    <mxGeometry x="380" y="210" width="70" height="270" as="geometry"/>
                </mxCell>
                <mxCell id="54" value="" style="endArrow=classic;html=1;rounded=0;curved=0;fillColor=#d5e8d4;strokeColor=#82b366;entryX=0;entryY=0.037;entryDx=0;entryDy=0;entryPerimeter=0;strokeWidth=4;" parent="1" target="52" edge="1">
                    <mxGeometry width="50" height="50" relative="1" as="geometry">
                        <mxPoint x="140" y="180" as="sourcePoint"/>
                        <mxPoint x="160" y="230" as="targetPoint"/>
                        <Array as="points">
                            <mxPoint x="140" y="220"/>
                        </Array>
                    </mxGeometry>
                </mxCell>
                <mxCell id="55" value="&lt;font style=&quot;font-size: 15px;&quot; face=&quot;Georgia&quot;&gt;&lt;b&gt;File/String&lt;/b&gt;&lt;/font&gt;" style="rounded=0;whiteSpace=wrap;html=1;fillColor=#d5e8d4;strokeColor=#82b366;strokeWidth=3;" parent="1" vertex="1">
                    <mxGeometry x="90" y="130" width="80" height="50" as="geometry"/>
                </mxCell>
                <mxCell id="56" value="" style="endArrow=classic;html=1;rounded=0;curved=0;fillColor=#d5e8d4;strokeColor=#82b366;entryX=0;entryY=0.296;entryDx=0;entryDy=0;entryPerimeter=0;strokeWidth=4;exitX=0.25;exitY=1;exitDx=0;exitDy=0;" parent="1" source="55" target="52" edge="1">
                    <mxGeometry width="50" height="50" relative="1" as="geometry">
                        <mxPoint x="120" y="180" as="sourcePoint"/>
                        <mxPoint x="160" y="250" as="targetPoint"/>
                        <Array as="points">
                            <mxPoint x="110" y="290"/>
                        </Array>
                    </mxGeometry>
                </mxCell>
                <mxCell id="57" value="" style="endArrow=classic;html=1;rounded=0;curved=0;fillColor=#dae8fc;strokeColor=#6c8ebf;strokeWidth=4;entryX=0;entryY=0.37;entryDx=0;entryDy=0;entryPerimeter=0;" parent="1" target="53" edge="1">
                    <mxGeometry width="50" height="50" relative="1" as="geometry">
                        <mxPoint x="340" y="180" as="sourcePoint"/>
                        <mxPoint x="370" y="310" as="targetPoint"/>
                        <Array as="points">
                            <mxPoint x="340" y="310"/>
                        </Array>
                    </mxGeometry>
                </mxCell>
                <mxCell id="58" value="&lt;font style=&quot;font-size: 15px;&quot; face=&quot;Georgia&quot;&gt;&lt;b&gt;File/String&lt;/b&gt;&lt;/font&gt;" style="rounded=0;whiteSpace=wrap;html=1;fillColor=#dae8fc;strokeColor=#6c8ebf;strokeWidth=3;" parent="1" vertex="1">
                    <mxGeometry x="300" y="130" width="90" height="50" as="geometry"/>
                </mxCell>
                <mxCell id="59" value="" style="endArrow=classic;html=1;rounded=0;curved=0;fillColor=#dae8fc;strokeColor=#6c8ebf;strokeWidth=4;entryX=0;entryY=0.111;entryDx=0;entryDy=0;entryPerimeter=0;" parent="1" target="53" edge="1">
                    <mxGeometry width="50" height="50" relative="1" as="geometry">
                        <mxPoint x="350" y="180" as="sourcePoint"/>
                        <mxPoint x="380" y="230" as="targetPoint"/>
                        <Array as="points">
                            <mxPoint x="350" y="240"/>
                        </Array>
                    </mxGeometry>
                </mxCell>
                <mxCell id="62" value="" style="endArrow=classic;html=1;rounded=0;curved=0;fillColor=#d5e8d4;strokeColor=#82b366;exitX=1;exitY=0.25;exitDx=0;exitDy=0;entryX=1;entryY=0.63;entryDx=0;entryDy=0;entryPerimeter=0;strokeWidth=4;" parent="1" target="52" edge="1">
                    <mxGeometry width="50" height="50" relative="1" as="geometry">
                        <mxPoint x="380" y="380.08" as="sourcePoint"/>
                        <mxPoint x="260" y="380" as="targetPoint"/>
                        <Array as="points"/>
                    </mxGeometry>
                </mxCell>
                <mxCell id="63" value="" style="endArrow=classic;html=1;rounded=0;curved=0;fillColor=#d5e8d4;strokeColor=#82b366;exitX=1;exitY=0.25;exitDx=0;exitDy=0;entryX=1;entryY=0.889;entryDx=0;entryDy=0;entryPerimeter=0;strokeWidth=4;" parent="1" target="52" edge="1">
                    <mxGeometry width="50" height="50" relative="1" as="geometry">
                        <mxPoint x="380" y="450.08" as="sourcePoint"/>
                        <mxPoint x="260" y="450" as="targetPoint"/>
                        <Array as="points"/>
                    </mxGeometry>
                </mxCell>
                <mxCell id="64" value="" style="endArrow=classic;html=1;rounded=0;curved=0;fillColor=#f8cecc;strokeColor=#DD5555;strokeWidth=4;exitX=0.333;exitY=0;exitDx=0;exitDy=0;exitPerimeter=0;" parent="1" source="65" edge="1">
                    <mxGeometry width="50" height="50" relative="1" as="geometry">
                        <mxPoint x="360" y="510" as="sourcePoint"/>
                        <mxPoint x="380" y="230" as="targetPoint"/>
                        <Array as="points">
                            <mxPoint x="360" y="230"/>
                        </Array>
                    </mxGeometry>
                </mxCell>
                <mxCell id="65" value="&lt;font face=&quot;Georgia&quot;&gt;&lt;b&gt;APB&lt;/b&gt;&lt;/font&gt;&lt;div&gt;&lt;font face=&quot;Georgia&quot;&gt;&lt;b&gt;AXI&lt;/b&gt;&lt;/font&gt;&lt;/div&gt;" style="rounded=0;whiteSpace=wrap;html=1;fillColor=#f8cecc;strokeColor=#b85450;" parent="1" vertex="1">
                    <mxGeometry x="350" y="530" width="30" height="80" as="geometry"/>
                </mxCell>
                <mxCell id="66" value="&lt;font face=&quot;Georgia&quot;&gt;&lt;b&gt;CPI&lt;/b&gt;&lt;/font&gt;&lt;div&gt;&lt;font face=&quot;Georgia&quot;&gt;&lt;b&gt;UIO&lt;/b&gt;&lt;/font&gt;&lt;/div&gt;&lt;div&gt;&lt;font face=&quot;Georgia&quot;&gt;&lt;b&gt;AXI&lt;/b&gt;&lt;/font&gt;&lt;/div&gt;" style="rounded=0;whiteSpace=wrap;html=1;fillColor=#f8cecc;strokeColor=#b85450;" parent="1" vertex="1">
                    <mxGeometry x="320" y="530" width="30" height="80" as="geometry"/>
                </mxCell>
                <mxCell id="69" value="" style="endArrow=classic;html=1;rounded=0;curved=0;fillColor=#f8cecc;strokeColor=#DD5555;entryX=0;entryY=0.333;entryDx=0;entryDy=0;entryPerimeter=0;strokeWidth=4;exitX=0.333;exitY=0;exitDx=0;exitDy=0;exitPerimeter=0;" parent="1" source="66" target="53" edge="1">
                    <mxGeometry width="50" height="50" relative="1" as="geometry">
                        <mxPoint x="330" y="510" as="sourcePoint"/>
                        <mxPoint x="360" y="310" as="targetPoint"/>
                        <Array as="points">
                            <mxPoint x="330" y="300"/>
                        </Array>
                    </mxGeometry>
                </mxCell>
                <mxCell id="71" value="&lt;font style=&quot;font-size: 15px;&quot; face=&quot;Georgia&quot;&gt;&lt;b&gt;CPI/UIO/M_AXI&lt;/b&gt;&lt;/font&gt;" style="text;html=1;align=center;verticalAlign=middle;resizable=0;points=[];autosize=1;strokeColor=none;fillColor=none;" parent="1" vertex="1">
                    <mxGeometry x="440" y="280" width="150" height="30" as="geometry"/>
                </mxCell>
                <mxCell id="72" value="&lt;font style=&quot;font-size: 15px;&quot; face=&quot;Georgia&quot;&gt;&lt;b&gt;APB&lt;/b&gt;&lt;/font&gt;" style="text;html=1;align=center;verticalAlign=middle;resizable=0;points=[];autosize=1;strokeColor=none;fillColor=none;" parent="1" vertex="1">
                    <mxGeometry x="440" y="210" width="60" height="30" as="geometry"/>
                </mxCell>
                <mxCell id="73" value="" style="endArrow=classic;html=1;rounded=0;curved=0;fillColor=#f8cecc;strokeColor=#b85450;strokeWidth=4;entryX=0.667;entryY=0;entryDx=0;entryDy=0;entryPerimeter=0;" parent="1" target="66" edge="1">
                    <mxGeometry width="50" height="50" relative="1" as="geometry">
                        <mxPoint x="380" y="390" as="sourcePoint"/>
                        <mxPoint x="340" y="510" as="targetPoint"/>
                        <Array as="points">
                            <mxPoint x="340" y="390"/>
                        </Array>
                    </mxGeometry>
                </mxCell>
                <mxCell id="75" value="" style="endArrow=classic;html=1;rounded=0;curved=0;fillColor=#f8cecc;strokeColor=#b85450;strokeWidth=4;entryX=0.667;entryY=0;entryDx=0;entryDy=0;entryPerimeter=0;" parent="1" target="65" edge="1">
                    <mxGeometry width="50" height="50" relative="1" as="geometry">
                        <mxPoint x="380" y="460" as="sourcePoint"/>
                        <mxPoint x="370" y="510" as="targetPoint"/>
                        <Array as="points">
                            <mxPoint x="370" y="460"/>
                        </Array>
                    </mxGeometry>
                </mxCell>
                <mxCell id="76" value="&lt;font style=&quot;font-size: 15px;&quot; face=&quot;Georgia&quot;&gt;&lt;b&gt;CPI/UIO/M_AXI&lt;/b&gt;&lt;/font&gt;" style="text;html=1;align=center;verticalAlign=middle;resizable=0;points=[];autosize=1;strokeColor=none;fillColor=none;" parent="1" vertex="1">
                    <mxGeometry x="440" y="370" width="150" height="30" as="geometry"/>
                </mxCell>
                <mxCell id="77" value="&lt;b style=&quot;color: rgb(63, 63, 63); font-family: Georgia; font-size: 15px;&quot;&gt;APB&lt;/b&gt;" style="text;html=1;align=center;verticalAlign=middle;resizable=0;points=[];autosize=1;strokeColor=none;fillColor=none;" parent="1" vertex="1">
                    <mxGeometry x="440" y="440" width="60" height="30" as="geometry"/>
                </mxCell>
                <mxCell id="100" style="edgeStyle=none;html=1;entryX=1;entryY=0.25;entryDx=0;entryDy=0;strokeWidth=3;" parent="1" source="78" target="99" edge="1">
                    <mxGeometry relative="1" as="geometry"/>
                </mxCell>
                <mxCell id="78" value="&lt;font style=&quot;font-size: 15px;&quot;&gt;&lt;font style=&quot;font-weight: bold;&quot; face=&quot;Georgia&quot;&gt;DPIC&amp;nbsp;&lt;/font&gt;&lt;font style=&quot;&quot; face=&quot;宋体&quot;&gt;&lt;b&gt;接口，函数参数传递的形式是&lt;/b&gt;&lt;/font&gt;&lt;font style=&quot;font-weight: bold;&quot; face=&quot;Georgia&quot;&gt;Array&lt;/font&gt;&lt;/font&gt;" style="text;html=1;align=center;verticalAlign=middle;resizable=0;points=[];autosize=1;strokeColor=none;fillColor=none;" parent="1" vertex="1">
                    <mxGeometry x="475" y="560" width="310" height="30" as="geometry"/>
                </mxCell>
                <mxCell id="81" value="" style="endArrow=classic;html=1;rounded=0;curved=0;fillColor=#ffe6cc;strokeColor=#DD5555;entryX=0.667;entryY=0;entryDx=0;entryDy=0;entryPerimeter=0;strokeWidth=4;exitX=1;exitY=0.333;exitDx=0;exitDy=0;exitPerimeter=0;" parent="1" source="52" target="84" edge="1">
                    <mxGeometry width="50" height="50" relative="1" as="geometry">
                        <mxPoint x="229.99999999999997" y="309.90000000000003" as="sourcePoint"/>
                        <mxPoint x="279.16" y="510" as="targetPoint"/>
                        <Array as="points">
                            <mxPoint x="280" y="300"/>
                        </Array>
                    </mxGeometry>
                </mxCell>
                <mxCell id="82" value="" style="endArrow=classic;html=1;rounded=0;curved=0;fillColor=#f8cecc;strokeColor=#b85450;strokeWidth=4;startArrow=oval;startFill=1;" parent="1" edge="1">
                    <mxGeometry width="50" height="50" relative="1" as="geometry">
                        <mxPoint x="340" y="390" as="sourcePoint"/>
                        <mxPoint x="230" y="390" as="targetPoint"/>
                        <Array as="points">
                            <mxPoint x="270" y="390"/>
                        </Array>
                    </mxGeometry>
                </mxCell>
                <mxCell id="83" value="" style="endArrow=classic;html=1;rounded=0;curved=0;fillColor=#f8cecc;strokeColor=#b85450;strokeWidth=4;startArrow=oval;startFill=1;" parent="1" edge="1">
                    <mxGeometry width="50" height="50" relative="1" as="geometry">
                        <mxPoint x="370" y="460" as="sourcePoint"/>
                        <mxPoint x="230" y="460" as="targetPoint"/>
                        <Array as="points">
                            <mxPoint x="240" y="460"/>
                        </Array>
                    </mxGeometry>
                </mxCell>
                <mxCell id="84" value="&lt;font face=&quot;Georgia&quot;&gt;&lt;b&gt;CPI&lt;/b&gt;&lt;/font&gt;&lt;div&gt;&lt;font face=&quot;Georgia&quot;&gt;&lt;b&gt;UIO&lt;/b&gt;&lt;/font&gt;&lt;/div&gt;&lt;div&gt;&lt;font face=&quot;Georgia&quot;&gt;&lt;b&gt;AXI&lt;/b&gt;&lt;/font&gt;&lt;/div&gt;" style="rounded=0;whiteSpace=wrap;html=1;fillColor=#f8cecc;strokeColor=#b85450;" parent="1" vertex="1">
                    <mxGeometry x="260" y="530" width="30" height="80" as="geometry"/>
                </mxCell>
                <mxCell id="85" value="&lt;font face=&quot;Georgia&quot;&gt;&lt;b&gt;APB&lt;/b&gt;&lt;/font&gt;&lt;div&gt;&lt;font face=&quot;Georgia&quot;&gt;&lt;b&gt;AXI&lt;/b&gt;&lt;/font&gt;&lt;/div&gt;" style="rounded=0;whiteSpace=wrap;html=1;fillColor=#f8cecc;strokeColor=#b85450;" parent="1" vertex="1">
                    <mxGeometry x="230" y="530" width="30" height="80" as="geometry"/>
                </mxCell>
                <mxCell id="86" value="" style="endArrow=classic;html=1;rounded=0;curved=0;fillColor=#ffe6cc;strokeColor=#DD5555;entryX=0.639;entryY=0;entryDx=0;entryDy=0;entryPerimeter=0;strokeWidth=4;exitX=1;exitY=0.074;exitDx=0;exitDy=0;exitPerimeter=0;" parent="1" source="52" target="85" edge="1">
                    <mxGeometry width="50" height="50" relative="1" as="geometry">
                        <mxPoint x="240" y="230" as="sourcePoint"/>
                        <mxPoint x="249.16000000000003" y="510" as="targetPoint"/>
                        <Array as="points">
                            <mxPoint x="250" y="230"/>
                        </Array>
                    </mxGeometry>
                </mxCell>
                <mxCell id="90" value="" style="endArrow=classic;html=1;rounded=0;curved=0;fillColor=#ffe6cc;strokeColor=#DD5555;strokeWidth=4;exitX=0.667;exitY=1;exitDx=0;exitDy=0;exitPerimeter=0;entryX=0.333;entryY=1;entryDx=0;entryDy=0;entryPerimeter=0;" parent="1" source="84" target="66" edge="1">
                    <mxGeometry width="50" height="50" relative="1" as="geometry">
                        <mxPoint x="280" y="620" as="sourcePoint"/>
                        <mxPoint x="330" y="620" as="targetPoint"/>
                        <Array as="points">
                            <mxPoint x="280" y="640"/>
                            <mxPoint x="330" y="640"/>
                        </Array>
                    </mxGeometry>
                </mxCell>
                <mxCell id="91" value="" style="endArrow=classic;html=1;rounded=0;curved=0;fillColor=#ffe6cc;strokeColor=#DD5555;strokeWidth=4;exitX=0.667;exitY=1;exitDx=0;exitDy=0;exitPerimeter=0;entryX=0.333;entryY=1;entryDx=0;entryDy=0;entryPerimeter=0;" parent="1" target="65" edge="1">
                    <mxGeometry width="50" height="50" relative="1" as="geometry">
                        <mxPoint x="250" y="610" as="sourcePoint"/>
                        <mxPoint x="360" y="620" as="targetPoint"/>
                        <Array as="points">
                            <mxPoint x="250" y="650"/>
                            <mxPoint x="360" y="650"/>
                        </Array>
                    </mxGeometry>
                </mxCell>
                <mxCell id="92" value="&lt;font face=&quot;Georgia&quot;&gt;&lt;b&gt;HOW&lt;/b&gt;&lt;/font&gt;&lt;div&gt;&lt;font face=&quot;Georgia&quot;&gt;&lt;b&gt;to&lt;/b&gt;&lt;/font&gt;&lt;/div&gt;&lt;div&gt;&lt;font face=&quot;Georgia&quot;&gt;&lt;b&gt;RANDOM&lt;/b&gt;&lt;/font&gt;&lt;/div&gt;" style="rounded=0;whiteSpace=wrap;html=1;fillColor=#f8cecc;strokeColor=#b85450;" parent="1" vertex="1">
                    <mxGeometry x="90" y="530" width="70" height="80" as="geometry"/>
                </mxCell>
                <mxCell id="93" value="" style="endArrow=classic;html=1;rounded=0;curved=0;fillColor=#f8cecc;strokeColor=#b85450;strokeWidth=4;startArrow=none;startFill=0;entryX=0;entryY=0.333;entryDx=0;entryDy=0;entryPerimeter=0;exitX=0.571;exitY=0;exitDx=0;exitDy=0;exitPerimeter=0;" parent="1" source="92" target="52" edge="1">
                    <mxGeometry width="50" height="50" relative="1" as="geometry">
                        <mxPoint x="130" y="500" as="sourcePoint"/>
                        <mxPoint x="150" y="300" as="targetPoint"/>
                        <Array as="points">
                            <mxPoint x="130" y="370"/>
                            <mxPoint x="130" y="300"/>
                        </Array>
                    </mxGeometry>
                </mxCell>
                <mxCell id="94" value="" style="endArrow=classic;html=1;rounded=0;curved=0;fillColor=#f8cecc;strokeColor=#b85450;strokeWidth=4;startArrow=none;startFill=0;exitX=0.429;exitY=0;exitDx=0;exitDy=0;exitPerimeter=0;" parent="1" source="92" edge="1">
                    <mxGeometry width="50" height="50" relative="1" as="geometry">
                        <mxPoint x="120" y="500" as="sourcePoint"/>
                        <mxPoint x="160" y="230" as="targetPoint"/>
                        <Array as="points">
                            <mxPoint x="120" y="300"/>
                            <mxPoint x="120" y="230"/>
                        </Array>
                    </mxGeometry>
                </mxCell>
                <mxCell id="95" value="" style="endArrow=classic;html=1;rounded=0;curved=0;fillColor=#f8cecc;strokeColor=#b85450;strokeWidth=4;startArrow=none;startFill=0;" parent="1" edge="1">
                    <mxGeometry width="50" height="50" relative="1" as="geometry">
                        <mxPoint x="440.08" y="530" as="sourcePoint"/>
                        <mxPoint x="440" y="480" as="targetPoint"/>
                        <Array as="points">
                            <mxPoint x="440.08" y="510"/>
                        </Array>
                    </mxGeometry>
                </mxCell>
                <mxCell id="97" value="&lt;font face=&quot;Georgia&quot;&gt;&lt;span style=&quot;font-size: 13px; text-wrap-mode: nowrap;&quot;&gt;&lt;b&gt;checker&lt;/b&gt;&lt;/span&gt;&lt;/font&gt;&lt;div&gt;&lt;font face=&quot;Georgia&quot;&gt;&lt;span style=&quot;font-size: 13px; text-wrap-mode: nowrap;&quot;&gt;&lt;b&gt;message&lt;/b&gt;&lt;/span&gt;&lt;/font&gt;&lt;/div&gt;" style="rounded=0;whiteSpace=wrap;html=1;fillColor=#f8cecc;strokeColor=#b85450;" parent="1" vertex="1">
                    <mxGeometry x="410" y="530" width="60" height="80" as="geometry"/>
                </mxCell>
                <mxCell id="101" style="edgeStyle=none;html=1;entryX=1.005;entryY=0.945;entryDx=0;entryDy=0;entryPerimeter=0;strokeWidth=3;" parent="1" source="78" target="98" edge="1">
                    <mxGeometry relative="1" as="geometry"/>
                </mxCell>
                <mxCell id="102" value="" style="endArrow=classic;html=1;rounded=0;curved=0;fillColor=#f8cecc;strokeColor=#b85450;strokeWidth=4;entryX=0.667;entryY=0;entryDx=0;entryDy=0;entryPerimeter=0;" parent="1" edge="1">
                    <mxGeometry width="50" height="50" relative="1" as="geometry">
                        <mxPoint x="370" y="610" as="sourcePoint"/>
                        <mxPoint x="370" y="640" as="targetPoint"/>
                        <Array as="points"/>
                    </mxGeometry>
                </mxCell>
                <mxCell id="103" value="" style="endArrow=classic;html=1;rounded=0;curved=0;fillColor=#f8cecc;strokeColor=#b85450;strokeWidth=4;" parent="1" edge="1">
                    <mxGeometry width="50" height="50" relative="1" as="geometry">
                        <mxPoint x="340" y="610" as="sourcePoint"/>
                        <mxPoint x="340" y="640" as="targetPoint"/>
                        <Array as="points"/>
                    </mxGeometry>
                </mxCell>
                <mxCell id="104" value="" style="endArrow=classic;html=1;rounded=0;curved=0;fillColor=#f8cecc;strokeColor=#b85450;strokeWidth=4;entryX=0.667;entryY=0;entryDx=0;entryDy=0;entryPerimeter=0;" parent="1" edge="1">
                    <mxGeometry width="50" height="50" relative="1" as="geometry">
                        <mxPoint x="439.5" y="640" as="sourcePoint"/>
                        <mxPoint x="439.5" y="610" as="targetPoint"/>
                        <Array as="points"/>
                    </mxGeometry>
                </mxCell>
                <mxCell id="106" value="" style="endArrow=classic;html=1;rounded=0;curved=0;fillColor=#f8cecc;strokeColor=#b85450;strokeWidth=4;entryX=0.667;entryY=0;entryDx=0;entryDy=0;entryPerimeter=0;" parent="1" edge="1">
                    <mxGeometry width="50" height="50" relative="1" as="geometry">
                        <mxPoint x="120" y="640" as="sourcePoint"/>
                        <mxPoint x="120" y="610" as="targetPoint"/>
                        <Array as="points"/>
                    </mxGeometry>
                </mxCell>
                <mxCell id="107" value="" style="endArrow=classic;html=1;rounded=0;curved=0;fillColor=#f8cecc;strokeColor=#b85450;strokeWidth=4;entryX=0.667;entryY=0;entryDx=0;entryDy=0;entryPerimeter=0;" parent="1" edge="1">
                    <mxGeometry width="50" height="50" relative="1" as="geometry">
                        <mxPoint x="129.75" y="640" as="sourcePoint"/>
                        <mxPoint x="129.75" y="610" as="targetPoint"/>
                        <Array as="points"/>
                    </mxGeometry>
                </mxCell>
                <mxCell id="109" value="&lt;font style=&quot;font-size: 15px;&quot; face=&quot;Georgia&quot;&gt;&lt;b&gt;Sequencer/Driver&lt;/b&gt;&lt;/font&gt;" style="text;html=1;align=center;verticalAlign=middle;resizable=0;points=[];autosize=1;strokeColor=none;fillColor=none;" parent="1" vertex="1">
                    <mxGeometry x="125" y="650" width="160" height="30" as="geometry"/>
                </mxCell>
                <mxCell id="110" value="&lt;font face=&quot;Georgia&quot;&gt;&lt;span style=&quot;font-size: 15px;&quot;&gt;&lt;b&gt;RM&lt;/b&gt;&lt;/span&gt;&lt;/font&gt;" style="text;html=1;align=center;verticalAlign=middle;resizable=0;points=[];autosize=1;strokeColor=none;fillColor=none;" parent="1" vertex="1">
                    <mxGeometry x="330" y="650" width="50" height="30" as="geometry"/>
                </mxCell>
                <mxCell id="111" value="&lt;font face=&quot;Georgia&quot;&gt;&lt;span style=&quot;font-size: 15px;&quot;&gt;&lt;b&gt;Checker/Scoreboard&lt;/b&gt;&lt;/span&gt;&lt;/font&gt;" style="text;html=1;align=center;verticalAlign=middle;resizable=0;points=[];autosize=1;strokeColor=none;fillColor=none;" parent="1" vertex="1">
                    <mxGeometry x="390" y="650" width="180" height="30" as="geometry"/>
                </mxCell>
                <mxCell id="112" value="&lt;font face=&quot;Georgia&quot; style=&quot;font-size: 18px;&quot;&gt;&lt;b&gt;System Verilog&lt;/b&gt;&lt;/font&gt;" style="text;html=1;align=center;verticalAlign=middle;resizable=0;points=[];autosize=1;strokeColor=#666666;fillColor=#f5f5f5;fontColor=#333333;" parent="1" vertex="1">
                    <mxGeometry x="610" y="630" width="160" height="40" as="geometry"/>
                </mxCell>
                <mxCell id="113" value="&lt;font face=&quot;Georgia&quot; style=&quot;font-size: 18px;&quot;&gt;&lt;b&gt;CPP&lt;/b&gt;&lt;/font&gt;" style="text;html=1;align=center;verticalAlign=middle;resizable=0;points=[];autosize=1;strokeColor=#9673a6;fillColor=#e1d5e7;" parent="1" vertex="1">
                    <mxGeometry x="610" y="480" width="60" height="40" as="geometry"/>
                </mxCell>
            </root>
        </mxGraphModel>
    </diagram>
</mxfile>